<svg xmlns="http://www.w3.org/2000/svg" xmlns:xlink="http://www.w3.org/1999/xlink" version="1.1" id="Your_Icon" x="0px" y="0px" width="100px" height="100px" viewBox="0 0 100 100" enable-background="new 0 0 100 100" xml:space="preserve">
<g>
	<rect x="0" y="0" fill="none" width="100" height="100"/>
</g>
<g>
	<g>
		<path d="M68.571,46.519c5.181-5.977,4.659-12.833,4.678-15.684c0.003-0.253-0.216-0.42-0.468-0.424l-2.091,0.017h-0.005    c-0.249,0-0.413,0.24-0.417,0.492c-0.026,2.113,0.331,8.631-3.14,12.574c-3.472,3.943-6.107,6.673-6.107,13.887    c0,0.05,0.009,0.097,0.019,0.145h-0.019c0,0.519-0.024,0.984-0.064,1.407c-1.598-0.499-3.452-0.739-5.564-0.739h-0.305    c-4.357,0-7.619,1.017-9.778,3.248c-1.418-0.118-2.585-0.196-3.162-0.196c-0.051,0-0.097,0-0.138,0.001    c-0.929,0.029-1.924,0.08-2.85,0.312c-1.877-0.178-3.483-0.313-4.187-0.313c-0.044,0-0.086,0-0.123,0.001    c-2.886,0.09-6.438,0.368-6.438,5.751l1.623,13.531h-2.239c-0.252,0-0.412,0.23-0.412,0.527v1.649c0,0.298,0.16,0.528,0.412,0.528    h5.027c0.253,0,0.458-0.207,0.458-0.46l-1.891-15.249c0-2.726,0.483-3.487,3.366-3.554c0.045-0.001,0.091-0.001,0.14-0.001    c0.3,0,0.712,0.019,1.205,0.05c-0.331,0.761-0.528,1.726-0.528,2.978l1.621,13.531h-2.238c-0.251,0-0.412,0.23-0.412,0.527v1.649    c0,0.298,0.16,0.528,0.412,0.528h5.028c0.251,0,0.458-0.207,0.458-0.46l-1.892-15.249c0-2.726,0.482-3.487,3.367-3.554    c0.046-0.001,0.096-0.001,0.149-0.001c0.356,0,0.868,0.021,1.484,0.058c-0.917,1.951-1.387,4.418-1.387,7.477v0.444    c0,9.429,4.355,13.311,12.924,13.311h0.305c8.568,0,12.923-3.883,12.923-13.311v-0.444c0-5.553-1.531-9.176-4.539-11.223    c0.139-0.795,0.215-1.705,0.215-2.756C63.992,50.459,66.706,48.67,68.571,46.519z M65.719,71.492v0.468    c0,7.948-3.566,10.901-10.318,10.901h-0.321c-6.781,0-10.345-2.953-10.345-10.901v-0.468c0-7.949,3.564-10.873,10.345-10.873    h0.321C62.153,60.619,65.719,63.543,65.719,71.492z M53.701,48.156h0.275c7.729,0,11.655-3.501,11.655-12.006v-0.4    c0-7.046-2.72-10.663-8.068-11.687c0.754-0.739,1.41-1.673,1.966-2.871c0.097-0.262,0.114-0.522-0.137-0.684l-1.53-0.812    c-0.11-0.067-0.258-0.114-0.4-0.114c-0.162,0-0.318,0.062-0.41,0.227c-0.67,1.293-1.4,2.211-2.345,2.859    c-0.963,0.662-2.191,1.06-3.908,1.267v0.008c-5.806,0.841-8.755,4.465-8.755,11.807v0.4    C42.045,44.654,45.972,48.156,53.701,48.156z M44.873,35.75c0-6.784,3.044-9.279,8.828-9.279h0.275    c5.761,0,8.803,2.495,8.803,9.279v0.398c0,6.783-3.042,9.303-8.803,9.303h-0.275c-5.785,0-8.828-2.52-8.828-9.303V35.75z     M53.978,41.773c2.863,0,3.925-1.097,4.254-5.093h-8.448C50.146,40.677,51.271,41.773,53.978,41.773z M43.559,54.823    c0,0.012,0.008,0.021,0.01,0.032v3.916c0.902-0.557,1.892-1.002,2.96-1.343v-3.305c0-0.038-0.013-0.072-0.022-0.108    c-0.217-3.319-2.105-5.086-5.365-8.79c-3.472-3.943-3.073-10.246-3.105-12.361c-0.003-0.249-0.166-0.489-0.414-0.489h-0.008    l-2.089-0.015c-0.253,0.005-0.473,0.174-0.467,0.426c0.023,2.85-0.541,9.486,4.639,15.462    C41.563,50.401,43.559,51.747,43.559,54.823z"/>
	</g>
</g>
</svg>